# xmcd CD database file
#
# Track frame offsets:
#	182
#	17687
#	35277
#	49225
#	65652
#	82145
#	96267
#	114010
#	129110
#	148007
#
# Disc length: 2178 seconds
#
# Revision: 2
# Processed by: cddbd v1.5.2PL0 Copyright (c) Steve Scherf et al.
# Submitted via: CDex 1.70beta2
#
DISCID=8008800a
DTITLE=Cleve Francis - Walkin'
DYEAR=1993
DGENRE=Country
TTITLE0=Walkin'
TTITLE1=Run Like The Wind
TTITLE2=I Won't Let You Walk Away
TTITLE3=If You'll Stop Hurting Me
TTITLE4=One More Last Chance
TTITLE5=Your Love Stays With Me
TTITLE6=When Will It Be Love
TTITLE7=I Was Losing You
TTITLE8=Heartaches On Parade
TTITLE9=You Can't Call It Love
EXTD=YEAR: 1993
EXTT0=
EXTT1=
EXTT2=
EXTT3=
EXTT4=
EXTT5=
EXTT6=
EXTT7=
EXTT8=
EXTT9=
PLAYORDER=
